<?xml version="1.0" encoding="utf-8"?>
<!-- Generator: Adobe Illustrator 23.0.4, SVG Export Plug-In . SVG Version: 6.00 Build 0)  -->
<svg version="1.1"   xmlns="http://www.w3.org/2000/svg" xmlns:xlink="http://www.w3.org/1999/xlink" x="0px" y="0px"
	 viewBox="0 0 64 65" enable-background="new 0 0 64 65" xml:space="preserve">
<path id="Path" fill-rule="evenodd" clip-rule="evenodd" fill="#0255A1" d="M8.942,11.647C17.604-0.707,34.651-3.71,47.022,4.941
	c9.73,6.805,13.666,18.794,10.686,29.614c-0.413-8.846-4.782-17.412-12.608-22.884c-12.139-8.49-28.436-6.624-38.378,3.746
	C7.35,14.124,8.089,12.863,8.942,11.647"/>
<path fill-rule="evenodd" clip-rule="evenodd" fill="#0255A1" d="M22.6,63.913C7.727,61.295-2.202,47.13,0.42,32.278
	c2.063-11.685,11.279-20.316,22.358-22.192C14.926,14.199,8.997,21.774,7.34,31.171C4.765,45.748,13.348,59.714,26.96,64.33
	C25.52,64.308,24.063,64.172,22.6,63.913"/>
<path fill-rule="evenodd" clip-rule="evenodd" fill="#0255A1" d="M63.039,28.125c3.908,14.568-4.748,29.542-19.335,33.446
	c-11.475,3.071-23.2-1.626-29.584-10.861c7.051,5.369,16.429,7.533,25.657,5.064c14.315-3.83,23.36-17.5,21.796-31.773
	C62.163,25.315,62.655,26.692,63.039,28.125"/>
<path fill-rule="evenodd" clip-rule="evenodd" d="M21.427,38.897v-1.479h-3.446v-1.643h-1.026v2.245h3.54v1.424
	c0,1.368-2.399,1.957-2.399,4.009v0.397h0.932v-0.944C19.029,41.538,21.427,40.936,21.427,38.897"/>
<path fill-rule="evenodd" clip-rule="evenodd" d="M27.356,43.85c-0.501-0.82-1.014-1.642-1.526-2.449
	c0.757-1.027,1.305-2.45,1.305-3.819v-0.164H26.25c0,1.163-0.199,2.341-0.85,3.258c-0.735-1.041-1.421-2.123-2.05-3.258h-1.095
	l1.13,1.765c-0.733,1.711-0.931,2.792-1.176,4.667h0.885c0.163-1.314,0.315-2.668,0.792-3.887c0.395,0.452,0.722,1.027,1.036,1.546
	c0.466,0.767,0.908,1.547,1.317,2.341H27.356"/>
<path fill-rule="evenodd" clip-rule="evenodd" d="M32.587,43.85v-3.243c0-2.122-1.281-3.34-3.016-3.34h-0.303
	c-0.536,0-0.653,0.057-1.177,0.137l0.175,0.669c0.361-0.258,0.873-0.34,1.293-0.34c1.351,0,2.004,1.369,2.004,2.806v3.311H32.587"/>
<path id="Shape" d="M39.13,37.418h-0.955c-0.022,1.096-0.105,2.19-0.186,3.271c-0.105,1.382-0.723,2.56-2.014,2.56h-1.001
	l-0.339-5.83h-0.931l0.372,6.432h1.654c1.876,0,3.029-0.438,3.179-2.888C38.992,39.786,39.061,38.595,39.13,37.418L39.13,37.418z
	 M36.94,37.871v-0.452h-0.931c0,0.891,0.023,1.834-0.268,2.682c-0.104,0.287-0.256,0.656-0.501,0.808l0.199,0.37
	c0.245-0.125,0.582-0.316,0.768-0.521C36.882,40.033,36.94,38.882,36.94,37.871z"/>
<polyline fill-rule="evenodd" clip-rule="evenodd" points="41.064,40.238 41.064,37.418 40.133,37.418 40.133,40.703 41.064,40.238 
	"/>
<path fill-rule="evenodd" clip-rule="evenodd" d="M47.022,43.85v-0.601h-0.571v-2.642c0-2.093-1.141-3.34-2.9-3.34h-0.303
	c-0.536,0-1.048,0.11-1.572,0.233l0.173,0.67c0.363-0.258,1.271-0.437,1.69-0.437c1.362,0,1.886,1.396,1.886,2.806v2.71h-3.61v0.601
	L47.022,43.85"/>
<path d="M23.14,34.854h-3.145v-5.364c0.373-0.122,0.758-0.151,1.142-0.151c1.34,0,2.004,1.369,2.004,2.806V34.854L23.14,34.854z
	 M24.165,35.457v-3.244c0-2.108-1.281-3.339-3.016-3.339c-0.757,0-1.526,0.095-2.247,0.369l0.163,0.479v5.735L24.165,35.457
	L24.165,35.457z"/>
<polyline fill-rule="evenodd" clip-rule="evenodd" points="25.999,31.843 25.999,29.024 25.068,29.024 25.068,32.308 25.999,31.843 
	"/>
<path d="M31.62,32.144c0,1.246-0.514,3.039-1.794,3.039c-1.327,0-1.816-1.465-1.816-2.806v-2.764c0.583-0.26,0.839-0.287,1.48-0.287
	C30.933,29.325,31.62,30.57,31.62,32.144L31.62,32.144z M32.644,32.213c0-2.094-1.467-3.339-3.156-3.339
	c-1.014,0-1.562,0.081-2.504,0.464v2.835c0,1.929,1.048,3.434,2.749,3.434C31.433,35.607,32.644,34.21,32.644,32.213z"/>
<path fill-rule="evenodd" clip-rule="evenodd" d="M39.269,32.213c0-2.108-1.268-3.339-3.016-3.339c-0.488,0-0.885,0.218-1.281,0.547
	c-0.303-0.397-0.769-0.507-1.199-0.493h-0.082l-0.175,0.424c0.757,0,0.839,0.534,0.839,1.368c0,0.576-0.095,1.274-0.141,1.848
	c-0.092,0.971-0.232,1.93-0.372,2.889h0.932c0.14-0.932,0.278-1.876,0.373-2.821c0.058-0.643,0.15-1.286,0.15-1.929
	c0-0.698,0.536-1.369,1.142-1.369c1.386,0,1.805,1.424,1.805,2.806c0,1.519-0.654,2.888-2.086,2.888
	c-0.173,0-0.326-0.11-0.489-0.178l-0.105,0.643c0.245,0.055,0.49,0.111,0.723,0.111C38.058,35.607,39.269,34.333,39.269,32.213"/>
<path d="M40.336,35.457h0.932V31.83h-0.932V35.457z M45.018,35.457v-3.244c0-2.121-1.281-3.339-3.018-3.339h-0.3
	c-0.536,0-1.05,0.109-1.573,0.233l0.174,0.671c0.349-0.261,1.269-0.44,1.69-0.44c1.35,0,2.002,1.369,2.002,2.806v3.313
	L45.018,35.457L45.018,35.457z"/>
<path fill-rule="evenodd" clip-rule="evenodd" d="M28.13,27.062v-3.243c0-2.108-1.281-3.34-3.016-3.34
	c-0.651,0-1.281,0.164-1.898,0.37l0.21,0.478v3.681c0,0.712-0.046,1.725-0.861,1.725c-0.175,0-0.349-0.054-0.524-0.095v0.328
	c0.315,0.137,0.64,0.246,0.978,0.246c1.176,0,1.339-0.998,1.339-2.147v-4.037c0.245-0.056,0.502-0.083,0.746-0.083
	c1.351,0,2.004,1.368,2.004,2.806v3.312L28.13,27.062"/>
<rect id="Rectangle" x="29.104" y="20.629" fill-rule="evenodd" clip-rule="evenodd" width="1" height="6.433"/>
<path d="M36.458,20.629h-0.954c-0.024,1.095-0.105,2.191-0.186,3.272c-0.105,1.382-0.723,2.558-2.016,2.558h-1.001l-0.337-5.83
	h-0.932l0.373,6.433h1.653c1.877,0,3.027-0.438,3.18-2.887C36.319,22.997,36.389,21.807,36.458,20.629L36.458,20.629z M34.27,21.082
	v-0.453h-0.931c0,0.891,0.022,1.835-0.269,2.683c-0.105,0.287-0.255,0.656-0.5,0.806l0.197,0.37c0.245-0.123,0.582-0.314,0.769-0.52
	C34.212,23.244,34.27,22.094,34.27,21.082z"/>
<path fill-rule="evenodd" clip-rule="evenodd" d="M41.781,27.062v-3.243c0-2.122-1.281-3.34-3.016-3.34h-0.303
	c-0.536,0-0.651,0.055-1.176,0.137l0.173,0.671c0.361-0.26,0.875-0.343,1.294-0.343c1.35,0,2.003,1.368,2.003,2.806v3.312
	L41.781,27.062"/>
</svg>
