<svg version="1.2" xmlns="http://www.w3.org/2000/svg" viewBox="0 0 1549 231" width="1549" height="231"><defs><clipPath clipPathUnits="userSpaceOnUse" id="cp1"><path d="m-2648-728h6847v9663h-6847z"/></clipPath></defs><style>.a{fill:#0e1721}</style><g clip-path="url(#cp1)"><path fill-rule="evenodd" class="a" d="m884.3 119l0.1 78.9c0 0.4-0.4 0.7-0.7 0.7h-33.4c-0.4 0-0.7-0.3-0.7-0.7l-0.1-88.5c0-20.9-12.6-34-33.8-34l-70.9 0.1c-0.4 0-0.7-0.3-0.7-0.7v-31.1c0-0.4 0.3-0.7 0.7-0.7h61.5c56.2-0.1 78 34 78 76zm-544.1 0l0.1 78.9c0 0.4-0.3 0.7-0.7 0.7h-33.4c-0.4 0-0.7-0.3-0.7-0.7l-0.1-88.5c0-20.9-12.6-34-33.8-34l-70.9 0.1c-0.3 0-0.7-0.3-0.7-0.7v-31.1c0-0.4 0.3-0.7 0.7-0.7h61.5c56.2-0.1 78 34 78 76zm370.9-75.4c3.7 64.9-23.5 81.3-56.4 81.3l63 72.9c0.3 0.3 0 0.8-0.3 0.8h-45.7q-0.7 0-1.2-0.6l-64.9-73.4c-25.8 0-27.8 54.5-27.8 73.3 0 0.4-0.3 0.7-0.7 0.7h-38.2c-0.3 0-0.7-0.4-0.7-0.7 0.1-53.2 15.1-88.2 55.3-88.3l-57.4-65.8c-0.3-0.3-0.1-0.8 0.3-0.8h46.8c0.4 0 0.8 0.2 1.1 0.5l57.7 66.9c27.9 0 30.3-27.4 30.3-66.7 0-0.4 0.3-0.7 0.6-0.7h37.5c0.4 0 0.7 0.3 0.7 0.6zm485.5 0.1v87.9c0 0.4-0.3 0.7-0.7 0.7h-35.3c-0.4 0-0.7-0.3-0.7-0.7v-87.9c0-0.4 0.3-0.7 0.6-0.7h35.4c0.4 0 0.7 0.3 0.7 0.7zm-677.8 74.5c0 57.2-40 80.3-90.3 80.4h-51.8c-0.4 0-0.7-0.3-0.7-0.7v-31.4c0-0.3 0.3-0.6 0.7-0.6l54.6 0.1c24.5 0 52.8-1.8 52.8-45.4 0-48.7-18.1-45.2-63-45.2l-44.5 0.1c-0.4 0-0.7-0.3-0.7-0.7v-31.1c0-0.4 0.3-0.7 0.7-0.7h61.5c50.6-0.1 80.6 31.5 80.7 75.2zm-341.6-5.9c0 39.2-9.6 90.3-87.9 90.3-66.6 0.1-86.4-36.1-88-81.5-1.3-35.2 1.4-70.6 1.8-75.7 0-0.3 0.3-0.6 0.7-0.6h31.6c0.4 0 0.7 0.3 0.7 0.7-0.1 5.9-1.1 49.1-0.5 73.8 0.4 18.6 4.4 50.9 53.7 50.9 52.8 0 52.6-37.8 52.6-61.8 0-24-14-32.7-31.3-32.7h-30c-0.4 0-0.7-0.3-0.7-0.7v-31.3c0-0.4 0.3-0.7 0.7-0.7h27.8c30.6 0 68.7 13.2 68.8 69.3zm949.8-5.8c-1.2 32.2-10.8 56.2-28.6 72.2-17.8 15.9-43.7 23.8-77.4 23.9-67.3-0.1-103.8-31.5-106-96-0.9-22.7-0.3-45.5 0.4-63 0.1-0.3 0.4-0.6 0.7-0.6h32.4c0.4 0 0.7 0.3 0.7 0.7-0.4 20.1-1 58.3 1.6 72.1 19.2 2.9 30.6 1.5 39-3.6 13.2-8 14.2-26.2 14.3-68.5 0-0.4 0.3-0.7 0.7-0.7h36.8c0.3 0 0.6 0.3 0.7 0.7 1.4 53.3-1.9 65.5-19 79.9-19.1 16.2-47.8 13.7-67.8 12.7 8.1 19.4 27.7 33.3 65.5 33.3 62.4 0 69.4-44.4 70.5-65.1 0.9-16 0.6-41 0.1-60.8 0-0.4 0.3-0.7 0.7-0.7h33.4c0.4 0 0.7 0.3 0.7 0.6 0.8 17.5 1.3 40.4 0.6 62.9zm421.7 53.7c0 6.3-3.4 12.1-8.9 15.1l-96.2 52.4q-6 3.3-12.9 3.3c-4.4 0-8.9-1.2-12.9-3.3l-96.1-52.4c-5.5-3-9-8.8-9-15.1 0-6.1 3.3-11.8 8.7-14.9l49.5-29.4c0.2-0.2 0.2-0.4 0-0.5l-49.6-29.5c-5.3-3.1-8.6-8.8-8.6-14.9 0-6.3 3.5-12 9-15.1l96.1-52.4c8.1-4.3 17.8-4.3 25.8 0l96.2 52.4c5.5 3.1 8.9 8.8 8.9 15.1 0 6.1-3.2 11.8-8.5 14.9l-49.5 29.5c-0.1 0.1-0.1 0.3 0 0.5l49.5 29.5c5.3 3 8.5 8.7 8.5 14.8zm-24.9-0.1l-73.5-44.2c-0.2-0.2-0.2-0.4 0-0.5l73.5-44.3-92.9-50.6-93.2 50.6 74.4 44.3c0.2 0.1 0.2 0.3 0 0.5l-74.4 44.2 92.9 50.6z"/></g></svg>